<svg width="261" height="156" viewBox="0 0 261 156" fill="none" xmlns="http://www.w3.org/2000/svg">
<path d="M212.485 155.915C211.296 155.915 210.156 155.443 209.315 154.602C208.475 153.761 208.002 152.621 208.002 151.432V108.388C208.002 107.2 207.53 106.059 206.689 105.219C205.849 104.378 204.709 103.906 203.52 103.906H160.487C159.298 103.906 158.158 103.434 157.317 102.593C156.477 101.752 156.005 100.612 156.005 99.4233V56.4803C156.005 55.2915 155.532 54.1513 154.692 53.3107C153.851 52.4701 152.711 51.9978 151.522 51.9978H108.489C107.3 51.9978 106.16 52.4701 105.32 53.3107C104.479 54.1513 104.007 55.2915 104.007 56.4803V99.4233C104.007 100.612 103.534 101.752 102.694 102.593C101.853 103.434 100.713 103.906 99.5242 103.906H56.4803C55.2915 103.906 54.1513 104.378 53.3107 105.219C52.47 106.059 51.9978 107.2 51.9978 108.388V151.432C51.9978 152.621 51.5255 153.761 50.6848 154.602C49.8442 155.443 48.704 155.915 47.5152 155.915H4.48257C3.29372 155.915 2.15355 155.443 1.31291 154.602C0.472266 153.761 0 152.621 0 151.432V108.388C0 107.2 0.472266 106.059 1.31291 105.219C2.15355 104.378 3.29372 103.906 4.48257 103.906H47.5152C48.704 103.906 49.8442 103.434 50.6848 102.593C51.5255 101.752 51.9978 100.612 51.9978 99.4233V56.3907C51.9978 55.2018 52.47 54.0617 53.3107 53.221C54.1513 52.3804 55.2915 51.9081 56.4803 51.9081H99.5242C100.713 51.9081 101.853 51.4358 102.694 50.5952C103.534 49.7546 104.007 48.6144 104.007 47.4255V3.36192C104.007 2.47029 104.361 1.61518 104.991 0.984699C105.622 0.354216 106.477 0 107.369 0H152.643C153.534 0 154.389 0.354216 155.02 0.984699C155.65 1.61518 156.005 2.47029 156.005 3.36192V47.4255C156.005 48.6144 156.477 49.7546 157.317 50.5952C158.158 51.4358 159.298 51.9081 160.487 51.9081H203.52C204.709 51.9081 205.849 52.3804 206.689 53.221C207.53 54.0617 208.002 55.2018 208.002 56.3907V99.4233C208.002 100.612 208.475 101.752 209.315 102.593C210.156 103.434 211.296 103.906 212.485 103.906H255.529C256.718 103.906 257.858 104.378 258.698 105.219C259.539 106.059 260.011 107.2 260.011 108.388V151.432C260.011 152.621 259.539 153.761 258.698 154.602C257.858 155.443 256.718 155.915 255.529 155.915H212.485Z" fill="black"/>
</svg>
