<svg width="257" height="154" viewBox="0 0 257 154" fill="none" xmlns="http://www.w3.org/2000/svg">
<path d="M209.301 153.578C208.13 153.578 207.007 153.113 206.179 152.285C205.351 151.457 204.885 150.334 204.885 149.163V106.764C204.885 105.593 204.42 104.47 203.592 103.642C202.764 102.814 201.641 102.349 200.47 102.349H158.082C156.911 102.349 155.788 101.884 154.96 101.056C154.132 100.228 153.667 99.1045 153.667 97.9334V55.634C153.667 54.4629 153.202 53.3399 152.374 52.5118C151.545 51.6838 150.422 51.2186 149.251 51.2186H106.864C105.693 51.2186 104.569 51.6838 103.741 52.5118C102.913 53.3399 102.448 54.4629 102.448 55.634V97.9334C102.448 99.1045 101.983 100.228 101.155 101.056C100.327 101.884 99.2038 102.349 98.0328 102.349H55.634C54.4629 102.349 53.3399 102.814 52.5118 103.642C51.6838 104.47 51.2186 105.593 51.2186 106.764V149.163C51.2186 150.334 50.7534 151.457 49.9253 152.285C49.0973 153.113 47.9742 153.578 46.8032 153.578H4.41539C3.24436 153.578 2.12128 153.113 1.29324 152.285C0.465189 151.457 0 150.334 0 149.163L0 106.764C0 105.593 0.465189 104.47 1.29324 103.642C2.12128 102.814 3.24436 102.349 4.41539 102.349H46.8032C47.9742 102.349 49.0973 101.884 49.9253 101.056C50.7534 100.228 51.2186 99.1045 51.2186 97.9334V55.5457C51.2186 54.3746 51.6838 53.2516 52.5118 52.4235C53.3399 51.5955 54.4629 51.1303 55.634 51.1303H98.0328C99.2038 51.1303 100.327 50.6651 101.155 49.837C101.983 49.009 102.448 47.8859 102.448 46.7149V3.31155C102.448 2.43327 102.797 1.59098 103.418 0.969943C104.039 0.348908 104.881 0 105.76 0L150.355 0C151.234 0 152.076 0.348908 152.697 0.969943C153.318 1.59098 153.667 2.43327 153.667 3.31155V46.7149C153.667 47.8859 154.132 49.009 154.96 49.837C155.788 50.6651 156.911 51.1303 158.082 51.1303H200.47C201.641 51.1303 202.764 51.5955 203.592 52.4235C204.42 53.2516 204.885 54.3746 204.885 55.5457V97.9334C204.885 99.1045 205.351 100.228 206.179 101.056C207.007 101.884 208.13 102.349 209.301 102.349H251.7C252.871 102.349 253.994 102.814 254.822 103.642C255.65 104.47 256.115 105.593 256.115 106.764V149.163C256.115 150.334 255.65 151.457 254.822 152.285C253.994 153.113 252.871 153.578 251.7 153.578H209.301Z" fill="#F5F5F5"/>
</svg>
