<svg width="258" height="155" viewBox="0 0 258 155" fill="none" xmlns="http://www.w3.org/2000/svg">
<path d="M206.513 152.989C207.388 153.864 208.574 154.356 209.812 154.356H252.211C253.448 154.356 254.635 153.864 255.509 152.989C256.384 152.114 256.876 150.928 256.876 149.69V107.291C256.876 106.054 256.384 104.867 255.509 103.992C254.635 103.118 253.448 102.626 252.211 102.626H209.812C208.707 102.626 207.647 102.187 206.866 101.406C206.085 100.625 205.646 99.5653 205.646 98.4606V56.0728C205.646 54.8355 205.155 53.6488 204.28 52.7739C203.405 51.899 202.218 51.4074 200.981 51.4074H158.593C157.488 51.4074 156.429 50.9686 155.648 50.1874C154.867 49.4063 154.428 48.3468 154.428 47.242V3.83871C154.428 2.89412 154.053 1.98824 153.385 1.32033C152.717 0.652412 151.811 0.277161 150.866 0.277161L106.271 0.277161C105.326 0.277161 104.42 0.652408 103.752 1.32033C103.084 1.98825 102.709 2.89413 102.709 3.83871V47.242C102.709 48.3468 102.27 49.4063 101.489 50.1874C100.708 50.9686 99.6485 51.4074 98.5438 51.4074H56.145C54.9076 51.4074 53.721 51.899 52.846 52.7739C51.9711 53.6488 51.4796 54.8355 51.4796 56.0728V98.4606C51.4796 99.5653 51.0407 100.625 50.2595 101.406C49.4784 102.187 48.4189 102.626 47.3142 102.626H4.92638C3.68904 102.626 2.50238 103.118 1.62745 103.992C0.752514 104.867 0.260986 106.054 0.260986 107.291L0.260986 149.69C0.260986 150.928 0.752513 152.114 1.62745 152.989C2.50238 153.864 3.68904 154.356 4.92638 154.356H47.3142C48.5515 154.356 49.7382 153.864 50.6131 152.989C51.488 152.114 51.9796 150.928 51.9796 149.69V107.291C51.9796 106.187 52.4184 105.127 53.1996 104.346C53.9807 103.565 55.0402 103.126 56.145 103.126H98.5438C99.7811 103.126 100.968 102.634 101.843 101.76C102.718 100.885 103.209 99.6979 103.209 98.4606V56.1611C103.209 55.0564 103.648 53.9969 104.429 53.2158C105.21 52.4346 106.27 51.9957 107.375 51.9957H149.762C150.867 51.9957 151.927 52.4346 152.708 53.2158C153.489 53.9969 153.928 55.0564 153.928 56.1611V98.4606C153.928 99.6979 154.419 100.885 155.294 101.76C156.169 102.634 157.356 103.126 158.593 103.126H200.981C202.086 103.126 203.145 103.565 203.926 104.346C204.707 105.127 205.146 106.187 205.146 107.291V149.69C205.146 150.928 205.638 152.114 206.513 152.989Z" fill="url(#paint0_linear_331_204)" stroke="url(#paint1_linear_331_204)" stroke-width="0.5"/>
<defs>
<linearGradient id="paint0_linear_331_204" x1="128.568" y1="0.527161" x2="128.568" y2="154" gradientUnits="userSpaceOnUse">
<stop stop-color="#FAFAFA"/>
<stop offset="1" stop-color="white"/>
</linearGradient>
<linearGradient id="paint1_linear_331_204" x1="128.568" y1="0.52716" x2="128.568" y2="154" gradientUnits="userSpaceOnUse">
<stop stop-color="#E5E5E5"/>
<stop offset="1" stop-color="white"/>
</linearGradient>
</defs>
</svg>
